<?xml version="1.0" encoding="UTF-8" standalone="no"?>
<!-- Created with Inkscape (http://www.inkscape.org/) -->

<svg
   xmlns:dc="http://purl.org/dc/elements/1.1/"
   xmlns:cc="http://creativecommons.org/ns#"
   xmlns:rdf="http://www.w3.org/1999/02/22-rdf-syntax-ns#"
   xmlns:svg="http://www.w3.org/2000/svg"
   xmlns="http://www.w3.org/2000/svg"
   xmlns:sodipodi="http://sodipodi.sourceforge.net/DTD/sodipodi-0.dtd"
   xmlns:inkscape="http://www.inkscape.org/namespaces/inkscape"
   id="svg2"
   version="1.1"
   inkscape:version="0.91 r13725"
   xml:space="preserve"
   width="531.49628"
   height="177.16499"
   viewBox="0 0 531.49628 177.16499"
   sodipodi:docname="Hyphen-logo-DEF-horizontale.svg"><metadata
     id="metadata8"><rdf:RDF><cc:Work
         rdf:about=""><dc:format>image/svg+xml</dc:format><dc:type
           rdf:resource="http://purl.org/dc/dcmitype/StillImage" /><dc:title></dc:title></cc:Work></rdf:RDF></metadata><defs
     id="defs6"><clipPath
       clipPathUnits="userSpaceOnUse"
       id="clipPath20"><path
         d="m 0,141.732 425.197,0 L 425.197,0 0,0 0,141.732 Z"
         id="path22"
         inkscape:connector-curvature="0" /></clipPath></defs><sodipodi:namedview
     pagecolor="#ffffff"
     bordercolor="#666666"
     borderopacity="1"
     objecttolerance="10"
     gridtolerance="10"
     guidetolerance="10"
     inkscape:pageopacity="0"
     inkscape:pageshadow="2"
     inkscape:window-width="698"
     inkscape:window-height="480"
     id="namedview4"
     showgrid="false"
     inkscape:zoom="0.79962931"
     inkscape:cx="99.421068"
     inkscape:cy="88.582497"
     inkscape:window-x="0"
     inkscape:window-y="0"
     inkscape:window-maximized="0"
     inkscape:current-layer="g10" /><g
     id="g10"
     inkscape:groupmode="layer"
     inkscape:label="Hyphen-logo-DEF-horizontale"
     transform="matrix(1.25,0,0,-1.25,0,177.165)"><g
       id="g12"
       transform="translate(199.6519,58.5636)"><path
         d="m 0,0 0,20.24 -26.264,0 0,-20.24 -3.048,0 0,43.194 3.048,0 0,-19.993 26.264,0 0,19.993 3.048,0 L 3.048,0 0,0 Z"
         style="fill:#737373;fill-opacity:1;fill-rule:nonzero;stroke:none"
         id="path14"
         inkscape:connector-curvature="0" /></g><g
       id="g16"><g
         id="g18"
         clip-path="url(#clipPath20)"><g
           id="g24"
           transform="translate(226.0357,57.4533)"><path
             d="m 0,0 c -2.639,-6.603 -5.687,-8.948 -9.967,-8.948 -2.286,0 -3.928,0.432 -5.921,1.358 l 0.997,2.653 c 1.583,-0.802 2.872,-1.172 5.1,-1.172 3.107,0 5.159,1.913 7.387,7.405 l -14.363,31.285 3.342,0 12.428,-28.139 10.787,28.139 3.166,0 L 0,0 Z"
             style="fill:#737373;fill-opacity:1;fill-rule:nonzero;stroke:none"
             id="path26"
             inkscape:connector-curvature="0" /></g><g
           id="g28"
           transform="translate(271.7056,74.299)"><path
             d="m 0,0 c 0,8.269 -5.452,13.575 -11.725,13.575 -6.213,0 -12.194,-5.492 -12.194,-13.513 l 0,-0.124 c 0,-8.084 5.981,-13.513 12.194,-13.513 C -5.218,-13.575 0,-8.577 0,-0.124 L 0,0 Z m -11.432,-16.476 c -5.979,0 -9.848,3.58 -12.311,7.529 l 0,-16.661 -2.872,0 0,41.343 2.872,0 0,-7.035 c 2.58,4.135 6.39,7.776 12.311,7.776 7.211,0 14.539,-6.11 14.539,-16.353 L 3.107,0 c 0,-10.243 -7.328,-16.476 -14.539,-16.476"
             style="fill:#737373;fill-opacity:1;fill-rule:nonzero;stroke:none"
             id="path30"
             inkscape:connector-curvature="0" /></g><g
           id="g32"
           transform="translate(304.7125,58.5636)"><path
             d="m 0,0 0,18.697 c 0,6.479 -3.459,10.737 -9.497,10.737 -5.862,0 -10.377,-4.69 -10.377,-11.231 l 0,-18.203 -2.872,0 0,45.046 2.872,0 0,-19.438 c 1.994,3.703 5.335,6.603 10.787,6.603 7.563,0 11.96,-5.431 11.96,-12.959 L 2.873,0 0,0 Z"
             style="fill:#737373;fill-opacity:1;fill-rule:nonzero;stroke:none"
             id="path34"
             inkscape:connector-curvature="0" /></g><g
           id="g36"
           transform="translate(338.8336,75.7795)"><path
             d="M 0,0 C -0.41,6.356 -3.869,12.218 -10.729,12.218 -16.649,12.218 -21.222,6.974 -21.75,0 L 0,0 Z m -10.024,-15.118 c 4.63,0 7.796,2.16 10.258,4.936 l 1.994,-1.85 c -3.048,-3.456 -6.624,-5.924 -12.37,-5.924 -7.856,0 -14.656,6.602 -14.656,16.414 l 0,0.123 c 0,9.133 6.097,16.414 14.187,16.414 8.383,0 13.718,-7.158 13.718,-16.475 l 0,-0.124 c 0,-0.432 0,-0.617 -0.058,-1.111 l -24.799,0 c 0.528,-7.837 5.863,-12.403 11.726,-12.403"
             style="fill:#737373;fill-opacity:1;fill-rule:nonzero;stroke:none"
             id="path38"
             inkscape:connector-curvature="0" /></g><g
           id="g40"
           transform="translate(371.2545,58.5636)"><path
             d="m 0,0 0,18.697 c 0,6.479 -3.459,10.737 -9.497,10.737 -5.862,0 -10.377,-4.69 -10.377,-11.231 l 0,-18.203 -2.872,0 0,31.471 2.872,0 0,-5.863 c 1.993,3.703 5.335,6.603 10.787,6.603 7.563,0 11.96,-5.431 11.96,-12.959 L 2.873,0 0,0 Z"
             style="fill:#737373;fill-opacity:1;fill-rule:nonzero;stroke:none"
             id="path42"
             inkscape:connector-curvature="0" /></g><g
           id="g44"
           transform="translate(175.6191,39.647)"><path
             d="m 0,0 -2.122,0 0,-7.979 -1.311,0 0,7.979 -1.891,0 0,1.107 1.891,0 0,2.486 c 0,1.035 0.251,1.85 0.752,2.446 0.501,0.595 1.273,0.893 2.314,0.893 0.167,0 0.348,-0.01 0.541,-0.03 C 0.366,6.884 0.547,6.848 0.714,6.796 L 0.482,5.631 C 0.341,5.67 0.199,5.702 0.058,5.729 -0.084,5.754 -0.245,5.767 -0.424,5.767 -0.771,5.767 -1.058,5.709 -1.282,5.592 -1.508,5.476 -1.682,5.311 -1.803,5.097 -1.926,4.884 -2.009,4.634 -2.054,4.35 -2.099,4.064 -2.122,3.761 -2.122,3.438 l 0,-2.331 L 0,1.107 0,0 Z"
             style="fill:#737373;fill-opacity:1;fill-rule:nonzero;stroke:none"
             id="path46"
             inkscape:connector-curvature="0" /></g><g
           id="g48"
           transform="translate(178.8403,39.7056)"><path
             d="m 0,0 c -0.013,0.389 -0.033,0.738 -0.058,1.049 l 1.254,0 C 1.221,0.803 1.241,0.53 1.253,0.233 c 0.013,-0.297 0.02,-0.544 0.02,-0.738 l 0.039,0 c 0.256,0.53 0.642,0.961 1.157,1.291 0.514,0.33 1.093,0.495 1.736,0.495 0.167,0 0.318,-0.007 0.453,-0.019 C 4.793,1.249 4.931,1.224 5.073,1.185 L 4.899,-0.077 C 4.822,-0.052 4.693,-0.026 4.513,0 4.333,0.025 4.153,0.039 3.973,0.039 3.626,0.039 3.292,-0.025 2.97,-0.155 2.648,-0.284 2.369,-0.487 2.131,-0.765 1.893,-1.043 1.7,-1.397 1.552,-1.83 1.404,-2.263 1.331,-2.783 1.331,-3.39 l 0,-4.648 -1.312,0 0,7.087 C 0.019,-0.706 0.013,-0.389 0,0"
             style="fill:#737373;fill-opacity:1;fill-rule:nonzero;stroke:none"
             id="path50"
             inkscape:connector-curvature="0" /></g><g
           id="g52"
           transform="translate(194.4064,36.2104)"><path
             d="m 0,0 c 0,0.505 -0.081,0.98 -0.241,1.428 -0.161,0.446 -0.39,0.835 -0.685,1.165 -0.296,0.33 -0.656,0.592 -1.08,0.786 C -2.431,3.573 -2.907,3.67 -3.433,3.67 -3.961,3.67 -4.434,3.573 -4.851,3.379 -5.269,3.185 -5.626,2.923 -5.922,2.593 -6.218,2.263 -6.446,1.874 -6.607,1.428 -6.768,0.98 -6.848,0.505 -6.848,0 c 0,-0.505 0.08,-0.98 0.241,-1.427 0.161,-0.446 0.389,-0.835 0.685,-1.165 0.296,-0.33 0.653,-0.589 1.071,-0.776 0.417,-0.188 0.89,-0.281 1.418,-0.281 0.526,0 1.002,0.093 1.427,0.281 0.424,0.187 0.784,0.446 1.08,0.776 0.295,0.33 0.524,0.719 0.685,1.165 C -0.081,-0.98 0,-0.505 0,0 m 1.389,0 c 0,-0.686 -0.12,-1.32 -0.357,-1.902 -0.238,-0.583 -0.569,-1.087 -0.994,-1.515 -0.424,-0.427 -0.932,-0.761 -1.523,-1 -0.592,-0.239 -1.242,-0.359 -1.948,-0.359 -0.695,0 -1.338,0.12 -1.929,0.359 -0.592,0.239 -1.1,0.573 -1.524,1 -0.424,0.428 -0.756,0.932 -0.994,1.515 -0.238,0.582 -0.357,1.216 -0.357,1.902 0,0.687 0.119,1.32 0.357,1.903 0.238,0.582 0.57,1.087 0.994,1.515 0.424,0.427 0.932,0.76 1.524,0.999 0.591,0.24 1.234,0.359 1.929,0.359 0.706,0 1.356,-0.119 1.948,-0.359 C -0.894,4.178 -0.386,3.845 0.038,3.418 0.463,2.99 0.794,2.485 1.032,1.903 1.269,1.32 1.389,0.687 1.389,0"
             style="fill:#737373;fill-opacity:1;fill-rule:nonzero;stroke:none"
             id="path54"
             inkscape:connector-curvature="0" /></g><g
           id="g56"
           transform="translate(202.459,40.4917)"><path
             d="M 0,0 C 0.533,0.33 1.129,0.495 1.784,0.495 2.029,0.495 2.282,0.47 2.547,0.418 2.81,0.366 3.067,0.266 3.318,0.117 3.569,-0.032 3.8,-0.229 4.012,-0.476 4.225,-0.722 4.408,-1.038 4.562,-1.427 4.871,-0.806 5.292,-0.33 5.826,0 c 0.533,0.33 1.167,0.495 1.899,0.495 1.145,0 2.003,-0.343 2.576,-1.028 0.571,-0.687 0.858,-1.593 0.858,-2.719 l 0,-5.572 -1.312,0 0,5.028 c 0,0.958 -0.177,1.729 -0.53,2.311 -0.354,0.583 -0.955,0.874 -1.804,0.874 -0.476,0 -0.877,-0.097 -1.205,-0.291 C 5.98,-1.097 5.716,-1.353 5.517,-1.67 5.317,-1.986 5.173,-2.346 5.083,-2.747 4.993,-3.148 4.948,-3.563 4.948,-3.989 l 0,-4.835 -1.312,0 0,5.301 c 0,0.439 -0.032,0.84 -0.096,1.203 -0.065,0.362 -0.177,0.67 -0.338,0.923 -0.161,0.251 -0.383,0.446 -0.665,0.582 -0.283,0.135 -0.643,0.204 -1.081,0.204 -0.308,0 -0.62,-0.072 -0.935,-0.214 -0.315,-0.143 -0.598,-0.359 -0.849,-0.651 -0.251,-0.291 -0.453,-0.66 -0.607,-1.106 -0.155,-0.446 -0.232,-0.975 -0.232,-1.582 l 0,-4.66 -1.312,0 0,7.087 c 0,0.245 -0.006,0.562 -0.018,0.951 -0.014,0.389 -0.033,0.738 -0.059,1.049 l 1.254,0 c 0.026,-0.246 0.045,-0.519 0.058,-0.816 0.012,-0.298 0.019,-0.544 0.019,-0.738 l 0.039,0 C -0.929,-0.761 -0.533,-0.33 0,0"
             style="fill:#737373;fill-opacity:1;fill-rule:nonzero;stroke:none"
             id="path58"
             inkscape:connector-curvature="0" /></g><g
           id="g60"
           transform="translate(225.3064,36.2104)"><path
             d="m 0,0 c 0,-0.505 0.078,-0.98 0.232,-1.427 0.153,-0.446 0.376,-0.835 0.665,-1.165 0.289,-0.33 0.647,-0.589 1.071,-0.776 0.424,-0.188 0.906,-0.281 1.446,-0.281 0.501,0 0.965,0.093 1.389,0.281 0.424,0.187 0.791,0.443 1.1,0.766 0.308,0.324 0.549,0.709 0.723,1.156 C 6.8,-1 6.886,-0.518 6.886,0 6.886,0.518 6.8,1 6.626,1.447 6.452,1.894 6.211,2.281 5.903,2.611 5.594,2.941 5.227,3.2 4.803,3.389 4.379,3.576 3.915,3.67 3.414,3.67 2.874,3.67 2.392,3.573 1.968,3.379 1.544,3.185 1.186,2.923 0.897,2.593 0.608,2.263 0.385,1.874 0.232,1.428 0.078,0.98 0,0.505 0,0 M 6.693,-3.009 C 6.308,-3.592 5.806,-4.032 5.189,-4.329 4.572,-4.627 3.935,-4.776 3.28,-4.776 c -0.708,0 -1.348,0.124 -1.92,0.369 -0.573,0.246 -1.061,0.583 -1.466,1.01 -0.405,0.426 -0.72,0.931 -0.945,1.514 -0.226,0.582 -0.337,1.21 -0.337,1.883 0,0.673 0.111,1.301 0.337,1.884 0.225,0.582 0.54,1.087 0.945,1.514 0.405,0.427 0.893,0.764 1.466,1.01 0.572,0.245 1.212,0.368 1.92,0.368 0.655,0 1.292,-0.152 1.909,-0.456 C 5.806,4.016 6.308,3.566 6.693,2.971 l 0.039,0 0,7.165 1.311,0 0,-14.679 -1.311,0 0,1.534 -0.039,0 z"
             style="fill:#737373;fill-opacity:1;fill-rule:nonzero;stroke:none"
             id="path62"
             inkscape:connector-curvature="0" /></g><g
           id="g64"
           transform="translate(243.535,36.2104)"><path
             d="m 0,0 c -0.54,0 -1.083,-0.022 -1.63,-0.067 -0.547,-0.046 -1.042,-0.136 -1.485,-0.273 -0.444,-0.136 -0.807,-0.333 -1.09,-0.592 -0.283,-0.258 -0.424,-0.601 -0.424,-1.029 0,-0.323 0.06,-0.596 0.183,-0.815 0.122,-0.22 0.286,-0.398 0.492,-0.535 0.206,-0.135 0.434,-0.232 0.684,-0.291 0.252,-0.057 0.505,-0.086 0.762,-0.086 0.463,0 0.875,0.08 1.235,0.242 0.359,0.162 0.662,0.382 0.906,0.66 0.245,0.278 0.431,0.598 0.56,0.961 0.128,0.362 0.192,0.744 0.192,1.145 L 0.385,0 0,0 Z M 0.385,1.338 C 0.385,2.121 0.18,2.706 -0.232,3.092 -0.644,3.477 -1.242,3.67 -2.025,3.67 -2.566,3.67 -3.067,3.573 -3.53,3.379 -3.993,3.185 -4.385,2.926 -4.707,2.603 L -5.44,3.476 c 0.373,0.375 0.865,0.686 1.476,0.932 0.611,0.245 1.302,0.368 2.074,0.368 0.488,0 0.944,-0.067 1.369,-0.203 C -0.096,4.437 0.277,4.233 0.598,3.961 0.919,3.689 1.17,3.347 1.35,2.933 1.53,2.518 1.62,2.032 1.62,1.476 l 0,-3.98 c 0,-0.35 0.013,-0.713 0.039,-1.088 0.025,-0.375 0.064,-0.692 0.116,-0.951 l -1.177,0 c -0.039,0.22 -0.071,0.459 -0.097,0.719 -0.025,0.259 -0.038,0.511 -0.038,0.757 l -0.039,0 c -0.411,-0.609 -0.877,-1.045 -1.398,-1.311 -0.521,-0.266 -1.148,-0.398 -1.881,-0.398 -0.347,0 -0.704,0.048 -1.07,0.146 -0.367,0.098 -0.701,0.256 -1.003,0.478 -0.303,0.22 -0.553,0.506 -0.752,0.856 -0.2,0.352 -0.299,0.779 -0.299,1.286 0,0.701 0.176,1.257 0.53,1.665 0.353,0.409 0.826,0.715 1.417,0.916 0.592,0.201 1.27,0.331 2.036,0.39 0.764,0.059 1.558,0.088 2.381,0.088 l 0,0.289 z"
             style="fill:#737373;fill-opacity:1;fill-rule:nonzero;stroke:none"
             id="path66"
             inkscape:connector-curvature="0" /></g><g
           id="g68"
           transform="translate(253.7764,39.647)"><path
             d="m 0,0 -2.546,0 0,-5.3 c 0,-0.337 0.032,-0.615 0.097,-0.835 0.064,-0.22 0.157,-0.391 0.279,-0.514 0.122,-0.123 0.267,-0.207 0.434,-0.253 0.167,-0.045 0.348,-0.068 0.54,-0.068 0.18,0 0.37,0.026 0.57,0.077 0.199,0.052 0.388,0.123 0.569,0.214 L 0,-7.824 c -0.231,-0.091 -0.472,-0.158 -0.723,-0.204 -0.251,-0.045 -0.525,-0.068 -0.82,-0.068 -0.244,0 -0.502,0.033 -0.771,0.097 -0.27,0.064 -0.521,0.187 -0.753,0.369 -0.231,0.181 -0.421,0.427 -0.569,0.737 -0.147,0.311 -0.221,0.719 -0.221,1.224 l 0,5.669 -1.872,0 0,1.107 1.872,0 0,2.563 1.311,0 0,-2.563 L 0,1.107 0,0 Z"
             style="fill:#737373;fill-opacity:1;fill-rule:nonzero;stroke:none"
             id="path70"
             inkscape:connector-curvature="0" /></g><g
           id="g72"
           transform="translate(262.4956,36.2104)"><path
             d="m 0,0 c -0.54,0 -1.083,-0.022 -1.63,-0.067 -0.547,-0.046 -1.042,-0.136 -1.485,-0.273 -0.444,-0.136 -0.807,-0.333 -1.09,-0.592 -0.283,-0.258 -0.424,-0.601 -0.424,-1.029 0,-0.323 0.06,-0.596 0.183,-0.815 0.122,-0.22 0.286,-0.398 0.492,-0.535 0.206,-0.135 0.434,-0.232 0.684,-0.291 0.252,-0.057 0.505,-0.086 0.762,-0.086 0.463,0 0.875,0.08 1.235,0.242 0.359,0.162 0.662,0.382 0.906,0.66 0.245,0.278 0.431,0.598 0.56,0.961 0.128,0.362 0.192,0.744 0.192,1.145 L 0.385,0 0,0 Z M 0.385,1.338 C 0.385,2.121 0.18,2.706 -0.232,3.092 -0.644,3.477 -1.242,3.67 -2.025,3.67 -2.566,3.67 -3.067,3.573 -3.53,3.379 -3.993,3.185 -4.385,2.926 -4.707,2.603 L -5.44,3.476 c 0.373,0.375 0.865,0.686 1.476,0.932 0.611,0.245 1.302,0.368 2.074,0.368 0.488,0 0.944,-0.067 1.369,-0.203 C -0.096,4.437 0.277,4.233 0.598,3.961 0.919,3.689 1.17,3.347 1.35,2.933 1.53,2.518 1.62,2.032 1.62,1.476 l 0,-3.98 c 0,-0.35 0.013,-0.713 0.039,-1.088 0.025,-0.375 0.064,-0.692 0.116,-0.951 l -1.177,0 c -0.039,0.22 -0.071,0.459 -0.097,0.719 -0.025,0.259 -0.038,0.511 -0.038,0.757 l -0.039,0 c -0.411,-0.609 -0.877,-1.045 -1.398,-1.311 -0.521,-0.266 -1.148,-0.398 -1.881,-0.398 -0.347,0 -0.704,0.048 -1.07,0.146 -0.367,0.098 -0.701,0.256 -1.003,0.478 -0.303,0.22 -0.553,0.506 -0.752,0.856 -0.2,0.352 -0.299,0.779 -0.299,1.286 0,0.701 0.176,1.257 0.53,1.665 0.353,0.409 0.826,0.715 1.417,0.916 0.592,0.201 1.27,0.331 2.036,0.39 0.764,0.059 1.558,0.088 2.381,0.088 l 0,0.289 z"
             style="fill:#737373;fill-opacity:1;fill-rule:nonzero;stroke:none"
             id="path74"
             inkscape:connector-curvature="0" /></g><g
           id="g76"
           transform="translate(279.1223,39.647)"><path
             d="m 0,0 -2.546,0 0,-5.3 c 0,-0.337 0.032,-0.615 0.097,-0.835 0.064,-0.22 0.157,-0.391 0.279,-0.514 0.122,-0.123 0.267,-0.207 0.434,-0.253 0.167,-0.045 0.348,-0.068 0.54,-0.068 0.18,0 0.37,0.026 0.57,0.077 0.199,0.052 0.388,0.123 0.569,0.214 L 0,-7.824 c -0.231,-0.091 -0.472,-0.158 -0.723,-0.204 -0.251,-0.045 -0.525,-0.068 -0.82,-0.068 -0.244,0 -0.502,0.033 -0.772,0.097 -0.269,0.064 -0.52,0.187 -0.752,0.369 -0.231,0.181 -0.421,0.427 -0.569,0.737 -0.147,0.311 -0.221,0.719 -0.221,1.224 l 0,5.669 -1.872,0 0,1.107 1.872,0 0,2.563 1.311,0 0,-2.563 L 0,1.107 0,0 Z"
             style="fill:#737373;fill-opacity:1;fill-rule:nonzero;stroke:none"
             id="path78"
             inkscape:connector-curvature="0" /></g><g
           id="g80"
           transform="translate(290.1161,36.2104)"><path
             d="m 0,0 c 0,0.505 -0.081,0.98 -0.241,1.428 -0.161,0.446 -0.389,0.835 -0.684,1.165 -0.296,0.33 -0.657,0.592 -1.081,0.786 -0.424,0.194 -0.9,0.291 -1.427,0.291 -0.527,0 -1,-0.097 -1.418,-0.291 C -5.269,3.185 -5.626,2.923 -5.921,2.593 -6.217,2.263 -6.445,1.874 -6.607,1.428 -6.767,0.98 -6.847,0.505 -6.847,0 c 0,-0.505 0.08,-0.98 0.24,-1.427 0.162,-0.446 0.39,-0.835 0.686,-1.165 0.295,-0.33 0.652,-0.589 1.07,-0.776 0.418,-0.188 0.891,-0.281 1.418,-0.281 0.527,0 1.003,0.093 1.427,0.281 0.424,0.187 0.785,0.446 1.081,0.776 0.295,0.33 0.523,0.719 0.684,1.165 C -0.081,-0.98 0,-0.505 0,0 m 1.389,0 c 0,-0.686 -0.119,-1.32 -0.357,-1.902 -0.238,-0.583 -0.569,-1.087 -0.993,-1.515 -0.424,-0.427 -0.932,-0.761 -1.524,-1 -0.592,-0.239 -1.241,-0.359 -1.948,-0.359 -0.694,0 -1.338,0.12 -1.929,0.359 -0.591,0.239 -1.1,0.573 -1.524,1 -0.424,0.428 -0.756,0.932 -0.993,1.515 -0.238,0.582 -0.357,1.216 -0.357,1.902 0,0.687 0.119,1.32 0.357,1.903 0.237,0.582 0.569,1.087 0.993,1.515 0.424,0.427 0.933,0.76 1.524,0.999 0.591,0.24 1.235,0.359 1.929,0.359 0.707,0 1.356,-0.119 1.948,-0.359 0.592,-0.239 1.1,-0.572 1.524,-0.999 C 0.463,2.99 0.794,2.485 1.032,1.903 1.27,1.32 1.389,0.687 1.389,0"
             style="fill:#737373;fill-opacity:1;fill-rule:nonzero;stroke:none"
             id="path82"
             inkscape:connector-curvature="0" /></g><g
           id="g84"
           transform="translate(306.6855,38.5991)"><path
             d="M 0,0 C -0.192,0.375 -0.485,0.683 -0.878,0.922 -1.27,1.161 -1.716,1.281 -2.218,1.281 -2.449,1.281 -2.681,1.255 -2.913,1.203 -3.144,1.151 -3.349,1.067 -3.53,0.951 -3.71,0.835 -3.854,0.686 -3.964,0.505 -4.073,0.323 -4.127,0.109 -4.127,-0.136 c 0,-0.427 0.173,-0.755 0.52,-0.98 0.348,-0.227 0.893,-0.418 1.64,-0.573 1.067,-0.22 1.854,-0.54 2.363,-0.961 0.508,-0.421 0.761,-0.988 0.761,-1.7 0,-0.517 -0.099,-0.954 -0.299,-1.31 -0.199,-0.356 -0.459,-0.648 -0.78,-0.873 -0.322,-0.227 -0.686,-0.389 -1.091,-0.486 -0.404,-0.097 -0.813,-0.146 -1.224,-0.146 -0.682,0 -1.344,0.143 -1.987,0.428 -0.643,0.284 -1.17,0.73 -1.582,1.34 l 1.042,0.776 c 0.231,-0.401 0.572,-0.738 1.022,-1.01 0.45,-0.271 0.945,-0.407 1.486,-0.407 0.282,0 0.552,0.025 0.809,0.077 0.258,0.052 0.483,0.143 0.676,0.272 0.192,0.129 0.347,0.294 0.462,0.495 0.117,0.201 0.174,0.45 0.174,0.748 0,0.478 -0.228,0.838 -0.684,1.077 -0.457,0.239 -1.116,0.463 -1.978,0.67 -0.27,0.064 -0.556,0.145 -0.858,0.243 -0.302,0.097 -0.582,0.239 -0.839,0.427 -0.257,0.187 -0.47,0.424 -0.637,0.709 -0.167,0.284 -0.25,0.64 -0.25,1.067 0,0.467 0.09,0.864 0.269,1.194 0.181,0.33 0.422,0.602 0.724,0.816 0.302,0.214 0.646,0.372 1.032,0.475 0.386,0.104 0.784,0.156 1.196,0.156 0.63,0 1.241,-0.143 1.833,-0.427 C 0.264,1.676 0.708,1.274 1.003,0.757 L 0,0 Z"
             style="fill:#737373;fill-opacity:1;fill-rule:nonzero;stroke:none"
             id="path86"
             inkscape:connector-curvature="0" /></g><g
           id="g88"
           transform="translate(318.3162,38.6763)"><path
             d="m 0,0 c -0.219,0.35 -0.538,0.638 -0.955,0.864 -0.418,0.227 -0.871,0.34 -1.359,0.34 -0.529,0 -1.004,-0.094 -1.429,-0.281 -0.424,-0.189 -0.787,-0.447 -1.089,-0.777 -0.303,-0.331 -0.534,-0.718 -0.695,-1.165 -0.16,-0.447 -0.241,-0.929 -0.241,-1.447 0,-0.517 0.081,-0.996 0.241,-1.436 0.161,-0.441 0.389,-0.826 0.685,-1.156 0.296,-0.33 0.656,-0.588 1.08,-0.776 0.424,-0.187 0.9,-0.281 1.428,-0.281 0.579,0 1.067,0.109 1.466,0.33 0.398,0.22 0.726,0.504 0.984,0.853 L 1.099,-5.669 C 0.714,-6.148 0.241,-6.53 -0.318,-6.814 -0.878,-7.1 -1.55,-7.242 -2.334,-7.242 c -0.733,0 -1.396,0.12 -1.987,0.359 -0.591,0.239 -1.096,0.573 -1.514,1 -0.418,0.428 -0.742,0.932 -0.975,1.515 -0.231,0.582 -0.346,1.217 -0.346,1.902 0,0.687 0.115,1.32 0.346,1.904 0.233,0.582 0.557,1.086 0.975,1.514 0.418,0.427 0.923,0.76 1.514,0.999 0.591,0.24 1.254,0.36 1.987,0.36 0.604,0 1.218,-0.133 1.842,-0.398 C 0.131,1.647 0.636,1.256 1.022,0.738 L 0,0 Z"
             style="fill:#737373;fill-opacity:1;fill-rule:nonzero;stroke:none"
             id="path90"
             inkscape:connector-curvature="0" /></g><path
           d="m 324.161,31.667 -1.312,0 0,9.087 1.312,0 0,-9.087 z m 0.27,12.582 c 0,-0.272 -0.097,-0.496 -0.29,-0.669 -0.193,-0.175 -0.405,-0.263 -0.636,-0.263 -0.232,0 -0.443,0.088 -0.637,0.263 -0.193,0.173 -0.289,0.397 -0.289,0.669 0,0.272 0.096,0.495 0.289,0.669 0.194,0.175 0.405,0.263 0.637,0.263 0.231,0 0.443,-0.088 0.636,-0.263 0.193,-0.174 0.29,-0.397 0.29,-0.669"
           style="fill:#737373;fill-opacity:1;fill-rule:nonzero;stroke:none"
           id="path92"
           inkscape:connector-curvature="0" /><g
           id="g94"
           transform="translate(335.9079,36.9097)"><path
             d="M 0,0 C -0.039,0.854 -0.312,1.563 -0.819,2.126 -1.328,2.689 -2.051,2.971 -2.99,2.971 -3.427,2.971 -3.832,2.89 -4.205,2.728 -4.579,2.566 -4.906,2.346 -5.188,2.068 -5.472,1.789 -5.697,1.473 -5.864,1.116 -6.031,0.761 -6.127,0.389 -6.153,0 L 0,0 Z m 1.331,-0.427 0,-0.292 c 0,-0.103 -0.007,-0.213 -0.019,-0.33 l -7.485,0 c 0.013,-0.453 0.103,-0.88 0.27,-1.281 0.167,-0.401 0.399,-0.751 0.695,-1.048 0.296,-0.298 0.643,-0.534 1.042,-0.709 0.398,-0.175 0.829,-0.262 1.292,-0.262 0.682,0 1.27,0.159 1.765,0.476 0.494,0.316 0.871,0.683 1.128,1.097 l 0.984,-0.777 c -0.54,-0.686 -1.135,-1.178 -1.785,-1.475 -0.649,-0.298 -1.346,-0.448 -2.092,-0.448 -0.669,0 -1.289,0.121 -1.862,0.36 -0.572,0.239 -1.064,0.573 -1.475,1 -0.412,0.428 -0.736,0.931 -0.974,1.514 -0.238,0.582 -0.357,1.217 -0.357,1.903 0,0.686 0.116,1.32 0.347,1.903 0.232,0.582 0.553,1.087 0.965,1.515 0.411,0.427 0.893,0.76 1.447,0.999 0.552,0.24 1.15,0.359 1.793,0.359 0.708,0 1.331,-0.119 1.872,-0.359 C -0.579,3.479 -0.129,3.155 0.231,2.747 0.591,2.34 0.865,1.864 1.051,1.32 1.238,0.776 1.331,0.194 1.331,-0.427"
             style="fill:#737373;fill-opacity:1;fill-rule:nonzero;stroke:none"
             id="path96"
             inkscape:connector-curvature="0" /></g><g
           id="g98"
           transform="translate(342.6009,40.7544)"><path
             d="m 0,0 c 0.025,-0.246 0.045,-0.519 0.058,-0.815 0.013,-0.298 0.02,-0.544 0.02,-0.739 l 0.038,0 c 0.257,0.531 0.675,0.961 1.254,1.291 0.578,0.33 1.189,0.495 1.832,0.495 1.144,0 2.003,-0.342 2.575,-1.028 0.572,-0.686 0.859,-1.593 0.859,-2.719 l 0,-5.572 -1.312,0 0,5.028 c 0,0.48 -0.039,0.913 -0.116,1.301 -0.077,0.389 -0.209,0.722 -0.396,1 -0.186,0.279 -0.436,0.495 -0.752,0.651 -0.314,0.155 -0.711,0.233 -1.186,0.233 -0.347,0 -0.685,-0.071 -1.013,-0.214 C 1.534,-1.23 1.241,-1.446 0.983,-1.738 0.726,-2.029 0.521,-2.398 0.367,-2.845 0.213,-3.291 0.135,-3.819 0.135,-4.427 l 0,-4.66 -1.312,0 0,7.087 c 0,0.245 -0.006,0.563 -0.019,0.951 C -1.209,-0.66 -1.228,-0.311 -1.253,0 L 0,0 Z"
             style="fill:#737373;fill-opacity:1;fill-rule:nonzero;stroke:none"
             id="path100"
             inkscape:connector-curvature="0" /></g><g
           id="g102"
           transform="translate(360.5013,38.6763)"><path
             d="m 0,0 c -0.219,0.35 -0.538,0.638 -0.955,0.864 -0.418,0.227 -0.871,0.34 -1.359,0.34 -0.529,0 -1.004,-0.094 -1.429,-0.281 -0.424,-0.189 -0.787,-0.447 -1.089,-0.777 -0.303,-0.331 -0.534,-0.718 -0.695,-1.165 -0.16,-0.447 -0.241,-0.929 -0.241,-1.447 0,-0.517 0.081,-0.996 0.241,-1.436 0.161,-0.441 0.389,-0.826 0.685,-1.156 0.296,-0.33 0.656,-0.588 1.08,-0.776 0.424,-0.187 0.9,-0.281 1.428,-0.281 0.579,0 1.067,0.109 1.466,0.33 0.398,0.22 0.726,0.504 0.984,0.853 L 1.099,-5.669 C 0.714,-6.148 0.241,-6.53 -0.318,-6.814 -0.878,-7.1 -1.55,-7.242 -2.334,-7.242 c -0.733,0 -1.396,0.12 -1.987,0.359 -0.591,0.239 -1.096,0.573 -1.514,1 -0.418,0.428 -0.742,0.932 -0.975,1.515 -0.231,0.582 -0.346,1.217 -0.346,1.902 0,0.687 0.115,1.32 0.346,1.904 0.233,0.582 0.557,1.086 0.975,1.514 0.418,0.427 0.923,0.76 1.514,0.999 0.591,0.24 1.254,0.36 1.987,0.36 0.604,0 1.218,-0.133 1.842,-0.398 C 0.131,1.647 0.636,1.256 1.022,0.738 L 0,0 Z"
             style="fill:#737373;fill-opacity:1;fill-rule:nonzero;stroke:none"
             id="path104"
             inkscape:connector-curvature="0" /></g><g
           id="g106"
           transform="translate(371.9,36.9097)"><path
             d="M 0,0 C -0.039,0.854 -0.312,1.563 -0.819,2.126 -1.328,2.689 -2.051,2.971 -2.99,2.971 -3.427,2.971 -3.832,2.89 -4.205,2.728 -4.579,2.566 -4.906,2.346 -5.188,2.068 -5.472,1.789 -5.697,1.473 -5.864,1.116 -6.031,0.761 -6.127,0.389 -6.153,0 L 0,0 Z m 1.331,-0.427 0,-0.292 c 0,-0.103 -0.007,-0.213 -0.019,-0.33 l -7.485,0 c 0.013,-0.453 0.103,-0.88 0.27,-1.281 0.167,-0.401 0.399,-0.751 0.695,-1.048 0.296,-0.298 0.643,-0.534 1.042,-0.709 0.398,-0.175 0.829,-0.262 1.292,-0.262 0.682,0 1.27,0.159 1.765,0.476 0.494,0.316 0.871,0.683 1.128,1.097 l 0.984,-0.777 c -0.54,-0.686 -1.135,-1.178 -1.785,-1.475 -0.649,-0.298 -1.346,-0.448 -2.092,-0.448 -0.669,0 -1.289,0.121 -1.862,0.36 -0.572,0.239 -1.064,0.573 -1.475,1 -0.412,0.428 -0.736,0.931 -0.974,1.514 -0.238,0.582 -0.357,1.217 -0.357,1.903 0,0.686 0.116,1.32 0.347,1.903 0.232,0.582 0.553,1.087 0.965,1.515 0.411,0.427 0.893,0.76 1.447,0.999 0.552,0.24 1.15,0.359 1.793,0.359 0.708,0 1.331,-0.119 1.872,-0.359 C -0.579,3.479 -0.129,3.155 0.231,2.747 0.591,2.34 0.865,1.864 1.051,1.32 1.238,0.776 1.331,0.194 1.331,-0.427"
             style="fill:#737373;fill-opacity:1;fill-rule:nonzero;stroke:none"
             id="path108"
             inkscape:connector-curvature="0" /></g><g
           id="g110"
           transform="translate(137.3698,88.761)"><path
             d="m 0,0 10.979,-1.976 -10e-4,-55.109 -22.175,0 L 0,0 Z"
             style="fill:#df933a;fill-opacity:1;fill-rule:nonzero;stroke:none"
             id="path112"
             inkscape:connector-curvature="0" /></g><g
           id="g114"
           transform="translate(91.2074,99.3204)"><path
             d="m 0,0 2.305,10.978 54.829,0 0,-22.176 L 0,0 Z"
             style="fill:#c86826;fill-opacity:1;fill-rule:nonzero;stroke:none"
             id="path116"
             inkscape:connector-curvature="0" /></g><g
           id="g118"
           transform="translate(93.4786,59.1686)"><path
             d="M 0,0 -38.139,-1.888"
             style="fill:none;stroke:#737373;stroke-width:1.36800003;stroke-linecap:butt;stroke-linejoin:miter;stroke-miterlimit:10;stroke-dasharray:none;stroke-opacity:1"
             id="path120"
             inkscape:connector-curvature="0" /></g><g
           id="g122"
           transform="translate(91.6962,58.1772)"><path
             d="M 0,0 11.917,19.697"
             style="fill:none;stroke:#737373;stroke-width:1.36800003;stroke-linecap:butt;stroke-linejoin:miter;stroke-miterlimit:10;stroke-dasharray:none;stroke-opacity:1"
             id="path124"
             inkscape:connector-curvature="0" /></g><g
           id="g126"
           transform="translate(97.6709,59.3528)"><path
             d="m 0,0 c 0.102,-2.315 -1.693,-4.275 -4.008,-4.377 -2.316,-0.101 -4.275,1.693 -4.377,4.009 -0.101,2.315 1.693,4.274 4.009,4.376 C -2.061,4.11 -0.102,2.315 0,0"
             style="fill:#737373;fill-opacity:1;fill-rule:nonzero;stroke:none"
             id="path128"
             inkscape:connector-curvature="0" /></g><g
           id="g130"
           transform="translate(59.4582,57.237)"><path
             d="m 0,0 c 0.102,-2.315 -1.693,-4.275 -4.008,-4.377 -2.315,-0.101 -4.275,1.693 -4.377,4.009 -0.101,2.315 1.693,4.274 4.009,4.376 C -2.061,4.11 -0.102,2.315 0,0"
             style="fill:#737373;fill-opacity:1;fill-rule:nonzero;stroke:none"
             id="path132"
             inkscape:connector-curvature="0" /></g><g
           id="g134"
           transform="translate(109.9017,78.1503)"><path
             d="m 0,0 c 0.152,-3.473 -2.539,-6.412 -6.012,-6.565 -3.474,-0.152 -6.413,2.539 -6.565,6.012 -0.153,3.474 2.539,6.413 6.012,6.565 C -3.092,6.165 -0.153,3.473 0,0"
             style="fill:#737373;fill-opacity:1;fill-rule:nonzero;stroke:none"
             id="path136"
             inkscape:connector-curvature="0" /></g><g
           id="g138"
           transform="translate(126.1964,75.214)"><path
             d="m 0,0 c 0.124,-2.822 -2.063,-5.21 -4.885,-5.334 -2.822,-0.124 -5.21,2.063 -5.334,4.885 -0.124,2.822 2.063,5.21 4.885,5.334 C -2.512,5.009 -0.124,2.822 0,0"
             style="fill:#737373;fill-opacity:1;fill-rule:nonzero;stroke:none"
             id="path140"
             inkscape:connector-curvature="0" /></g><g
           id="g142"
           transform="translate(165.9605,103.4958)"><path
             d="m 0,0 c 0.102,-2.315 -1.693,-4.275 -4.008,-4.377 -2.316,-0.101 -4.275,1.693 -4.377,4.009 -0.101,2.315 1.693,4.274 4.009,4.376 C -2.061,4.11 -0.102,2.315 0,0"
             style="fill:#737373;fill-opacity:1;fill-rule:nonzero;stroke:none"
             id="path144"
             inkscape:connector-curvature="0" /></g><g
           id="g146"
           transform="translate(103.613,77.8741)"><path
             d="M 0,0 17.474,-2.884 58.419,25.453"
             style="fill:none;stroke:#737373;stroke-width:1.36800003;stroke-linecap:butt;stroke-linejoin:miter;stroke-miterlimit:10;stroke-dasharray:none;stroke-opacity:1"
             id="path148"
             inkscape:connector-curvature="0" /></g><g
           id="g150"
           transform="translate(126.721,42.688)"><path
             d="m 0,0 -1.975,-10.978 -55.006,0 0,22.175 L 0,0 Z"
             style="fill:#d44f28;fill-opacity:1;fill-rule:nonzero;stroke:none"
             id="path152"
             inkscape:connector-curvature="0" /></g><g
           id="g154"
           transform="translate(80.724,53.3029)"><path
             d="m 0,0 -10.977,1.921 0,55.054 22.175,0 L 0,0 Z"
             style="fill:#ab4424;fill-opacity:1;fill-rule:nonzero;stroke:none"
             id="path156"
             inkscape:connector-curvature="0" /></g></g></g></g></svg>