<?xml version="1.0" encoding="UTF-8" standalone="no"?>
<!-- Created with Inkscape (http://www.inkscape.org/) -->

<svg
   xmlns:dc="http://purl.org/dc/elements/1.1/"
   xmlns:cc="http://creativecommons.org/ns#"
   xmlns:rdf="http://www.w3.org/1999/02/22-rdf-syntax-ns#"
   xmlns:svg="http://www.w3.org/2000/svg"
   xmlns="http://www.w3.org/2000/svg"
   xmlns:sodipodi="http://sodipodi.sourceforge.net/DTD/sodipodi-0.dtd"
   xmlns:inkscape="http://www.inkscape.org/namespaces/inkscape"
   id="svg2"
   version="1.1"
   inkscape:version="0.91 r13725"
   xml:space="preserve"
   width="354.33124"
   height="283.465"
   viewBox="0 0 354.33124 283.465"
   sodipodi:docname="Hyphen-logo-DEF-verticale.svg"><metadata
     id="metadata8"><rdf:RDF><cc:Work
         rdf:about=""><dc:format>image/svg+xml</dc:format><dc:type
           rdf:resource="http://purl.org/dc/dcmitype/StillImage" /><dc:title></dc:title></cc:Work></rdf:RDF></metadata><defs
     id="defs6"><clipPath
       clipPathUnits="userSpaceOnUse"
       id="clipPath20"><path
         d="m 0,226.772 283.465,0 L 283.465,0 0,0 0,226.772 Z"
         id="path22"
         inkscape:connector-curvature="0" /></clipPath></defs><sodipodi:namedview
     pagecolor="#ffffff"
     bordercolor="#666666"
     borderopacity="1"
     objecttolerance="10"
     gridtolerance="10"
     guidetolerance="10"
     inkscape:pageopacity="0"
     inkscape:pageshadow="2"
     inkscape:window-width="698"
     inkscape:window-height="480"
     id="namedview4"
     showgrid="false"
     inkscape:zoom="0.83255429"
     inkscape:cx="17.416278"
     inkscape:cy="141.7325"
     inkscape:window-x="0"
     inkscape:window-y="0"
     inkscape:window-maximized="0"
     inkscape:current-layer="g10" /><g
     id="g10"
     inkscape:groupmode="layer"
     inkscape:label="Hyphen-logo-DEF-verticale"
     transform="matrix(1.25,0,0,-1.25,0,283.465)"><g
       id="g12"
       transform="translate(69.0196,61.2216)"><path
         d="m 0,0 0,20.24 -26.264,0 0,-20.24 -3.048,0 0,43.194 3.048,0 0,-19.992 26.264,0 0,19.992 3.048,0 L 3.048,0 0,0 Z"
         style="fill:#737373;fill-opacity:1;fill-rule:nonzero;stroke:none"
         id="path14"
         inkscape:connector-curvature="0" /></g><g
       id="g16"><g
         id="g18"
         clip-path="url(#clipPath20)"><g
           id="g24"
           transform="translate(95.4034,60.1108)"><path
             d="m 0,0 c -2.639,-6.603 -5.687,-8.947 -9.967,-8.947 -2.286,0 -3.928,0.432 -5.921,1.357 l 0.997,2.653 c 1.583,-0.802 2.872,-1.172 5.1,-1.172 3.107,0 5.159,1.913 7.387,7.405 l -14.363,31.285 3.341,0 12.429,-28.138 10.787,28.138 3.166,0 L 0,0 Z"
             style="fill:#737373;fill-opacity:1;fill-rule:nonzero;stroke:none"
             id="path26"
             inkscape:connector-curvature="0" /></g><g
           id="g28"
           transform="translate(141.0733,76.957)"><path
             d="m 0,0 c 0,8.269 -5.452,13.575 -11.725,13.575 -6.213,0 -12.194,-5.492 -12.194,-13.513 l 0,-0.124 c 0,-8.084 5.981,-13.514 12.194,-13.514 C -5.218,-13.576 0,-8.577 0,-0.124 L 0,0 Z m -11.432,-16.476 c -5.979,0 -9.848,3.579 -12.311,7.528 l 0,-16.66 -2.872,0 0,41.343 2.872,0 0,-7.035 c 2.58,4.135 6.39,7.776 12.311,7.776 7.211,0 14.54,-6.109 14.54,-16.353 L 3.108,0 c 0,-10.244 -7.329,-16.476 -14.54,-16.476"
             style="fill:#737373;fill-opacity:1;fill-rule:nonzero;stroke:none"
             id="path30"
             inkscape:connector-curvature="0" /></g><g
           id="g32"
           transform="translate(174.0807,61.2216)"><path
             d="m 0,0 0,18.697 c 0,6.479 -3.459,10.737 -9.497,10.737 -5.862,0 -10.377,-4.69 -10.377,-11.23 l 0,-18.204 -2.872,0 0,45.046 2.872,0 0,-19.438 c 1.994,3.703 5.335,6.603 10.787,6.603 7.563,0 11.96,-5.43 11.96,-12.959 L 2.873,0 0,0 Z"
             style="fill:#737373;fill-opacity:1;fill-rule:nonzero;stroke:none"
             id="path34"
             inkscape:connector-curvature="0" /></g><g
           id="g36"
           transform="translate(208.2018,78.4379)"><path
             d="M 0,0 C -0.41,6.355 -3.869,12.218 -10.729,12.218 -16.649,12.218 -21.222,6.973 -21.75,0 L 0,0 Z m -10.024,-15.118 c 4.63,0 7.796,2.16 10.258,4.936 l 1.994,-1.851 c -3.048,-3.456 -6.624,-5.924 -12.37,-5.924 -7.856,0 -14.656,6.603 -14.656,16.414 l 0,0.124 c 0,9.132 6.097,16.414 14.187,16.414 8.383,0 13.718,-7.159 13.718,-16.476 l 0,-0.123 c 0,-0.433 0,-0.618 -0.058,-1.111 l -24.799,0 c 0.528,-7.837 5.863,-12.403 11.726,-12.403"
             style="fill:#737373;fill-opacity:1;fill-rule:nonzero;stroke:none"
             id="path38"
             inkscape:connector-curvature="0" /></g><g
           id="g40"
           transform="translate(240.6227,61.2216)"><path
             d="m 0,0 0,18.697 c 0,6.479 -3.459,10.737 -9.497,10.737 -5.862,0 -10.377,-4.69 -10.377,-11.23 l 0,-18.204 -2.872,0 0,31.47 2.872,0 0,-5.862 c 1.993,3.703 5.335,6.603 10.787,6.603 7.563,0 11.96,-5.43 11.96,-12.959 L 2.873,0 0,0 Z"
             style="fill:#737373;fill-opacity:1;fill-rule:nonzero;stroke:none"
             id="path42"
             inkscape:connector-curvature="0" /></g><g
           id="g44"
           transform="translate(44.9507,39.6381)"><path
             d="m 0,0 -2.136,0 0,-7.98 -1.32,0 0,7.98 -1.903,0 0,1.106 1.903,0 0,2.486 c 0,1.035 0.252,1.851 0.757,2.446 0.505,0.595 1.281,0.893 2.33,0.893 0.168,0 0.349,-0.009 0.544,-0.029 C 0.369,6.883 0.55,6.847 0.718,6.795 L 0.485,5.63 C 0.343,5.669 0.2,5.702 0.058,5.728 -0.085,5.753 -0.246,5.767 -0.427,5.767 -0.776,5.767 -1.065,5.708 -1.291,5.592 -1.518,5.475 -1.693,5.31 -1.815,5.097 -1.938,4.883 -2.022,4.634 -2.068,4.349 -2.113,4.064 -2.136,3.76 -2.136,3.437 l 0,-2.331 L 0,1.106 0,0 Z"
             style="fill:#737373;fill-opacity:1;fill-rule:nonzero;stroke:none"
             id="path46"
             inkscape:connector-curvature="0" /></g><g
           id="g48"
           transform="translate(48.1933,39.6962)"><path
             d="m 0,0 c -0.013,0.388 -0.033,0.738 -0.059,1.048 l 1.263,0 C 1.229,0.803 1.249,0.531 1.262,0.233 1.274,-0.065 1.281,-0.311 1.281,-0.505 l 0.039,0 c 0.259,0.531 0.647,0.962 1.165,1.292 0.518,0.33 1.1,0.495 1.748,0.495 0.168,0 0.32,-0.007 0.456,-0.02 C 4.825,1.249 4.964,1.223 5.106,1.185 L 4.932,-0.078 C 4.854,-0.052 4.724,-0.026 4.543,0 4.362,0.026 4.181,0.039 4,0.039 3.65,0.039 3.313,-0.026 2.99,-0.155 2.666,-0.284 2.385,-0.487 2.145,-0.765 1.906,-1.042 1.712,-1.397 1.563,-1.83 1.414,-2.263 1.339,-2.783 1.339,-3.39 l 0,-4.648 -1.32,0 0,7.087 C 0.019,-0.706 0.013,-0.388 0,0"
             style="fill:#737373;fill-opacity:1;fill-rule:nonzero;stroke:none"
             id="path50"
             inkscape:connector-curvature="0" /></g><g
           id="g52"
           transform="translate(63.8625,36.2016)"><path
             d="M 0,0 C 0,0.505 -0.081,0.98 -0.243,1.427 -0.405,1.874 -0.635,2.262 -0.932,2.592 -1.23,2.922 -1.592,3.184 -2.02,3.378 -2.447,3.572 -2.926,3.669 -3.456,3.669 -3.987,3.669 -4.463,3.572 -4.883,3.378 -5.304,3.184 -5.663,2.922 -5.961,2.592 -6.259,2.262 -6.489,1.874 -6.65,1.427 -6.813,0.98 -6.893,0.505 -6.893,0 c 0,-0.505 0.08,-0.98 0.243,-1.427 0.161,-0.447 0.391,-0.835 0.689,-1.165 0.298,-0.33 0.657,-0.589 1.078,-0.777 0.42,-0.188 0.896,-0.281 1.427,-0.281 0.53,0 1.009,0.093 1.436,0.281 0.428,0.188 0.79,0.447 1.088,0.777 0.297,0.33 0.527,0.718 0.689,1.165 C -0.081,-0.98 0,-0.505 0,0 m 1.398,0 c 0,-0.687 -0.12,-1.32 -0.36,-1.903 -0.239,-0.582 -0.572,-1.087 -0.999,-1.514 -0.427,-0.428 -0.939,-0.761 -1.534,-1 -0.596,-0.24 -1.25,-0.359 -1.961,-0.359 -0.699,0 -1.347,0.119 -1.942,0.359 -0.596,0.239 -1.107,0.572 -1.534,1 -0.427,0.427 -0.761,0.932 -1,1.514 -0.24,0.583 -0.359,1.216 -0.359,1.903 0,0.686 0.119,1.32 0.359,1.903 0.239,0.582 0.573,1.087 1,1.514 0.427,0.427 0.938,0.76 1.534,1 0.595,0.239 1.243,0.359 1.942,0.359 0.711,0 1.365,-0.12 1.961,-0.359 0.595,-0.24 1.107,-0.573 1.534,-1 C 0.466,2.99 0.799,2.485 1.038,1.903 1.278,1.32 1.398,0.686 1.398,0"
             style="fill:#737373;fill-opacity:1;fill-rule:nonzero;stroke:none"
             id="path54"
             inkscape:connector-curvature="0" /></g><g
           id="g56"
           transform="translate(71.9685,40.4828)"><path
             d="M 0,0 C 0.537,0.33 1.136,0.495 1.796,0.495 2.042,0.495 2.298,0.469 2.563,0.417 2.828,0.365 3.087,0.265 3.34,0.116 3.592,-0.033 3.825,-0.23 4.039,-0.476 4.253,-0.722 4.437,-1.039 4.592,-1.427 4.903,-0.806 5.327,-0.33 5.864,0 c 0.537,0.33 1.175,0.495 1.912,0.495 1.153,0 2.017,-0.343 2.593,-1.029 0.575,-0.686 0.864,-1.592 0.864,-2.718 l 0,-5.573 -1.321,0 0,5.029 c 0,0.958 -0.178,1.728 -0.534,2.311 -0.355,0.582 -0.961,0.873 -1.815,0.873 -0.479,0 -0.883,-0.097 -1.214,-0.291 C 6.02,-1.097 5.754,-1.353 5.553,-1.67 5.353,-1.987 5.207,-2.347 5.117,-2.748 5.026,-3.149 4.981,-3.563 4.981,-3.99 l 0,-4.835 -1.321,0 0,5.301 c 0,0.44 -0.032,0.841 -0.097,1.204 -0.065,0.362 -0.178,0.67 -0.339,0.922 -0.163,0.252 -0.386,0.446 -0.67,0.583 -0.285,0.135 -0.648,0.203 -1.088,0.203 -0.31,0 -0.625,-0.071 -0.942,-0.213 -0.317,-0.143 -0.602,-0.36 -0.854,-0.651 -0.252,-0.291 -0.456,-0.66 -0.612,-1.107 -0.155,-0.446 -0.233,-0.974 -0.233,-1.582 l 0,-4.66 -1.32,0 0,7.087 c 0,0.246 -0.006,0.563 -0.019,0.951 -0.013,0.389 -0.033,0.738 -0.059,1.049 l 1.262,0 c 0.026,-0.246 0.046,-0.518 0.059,-0.816 0.012,-0.298 0.019,-0.543 0.019,-0.738 l 0.039,0 C -0.935,-0.761 -0.537,-0.33 0,0"
             style="fill:#737373;fill-opacity:1;fill-rule:nonzero;stroke:none"
             id="path58"
             inkscape:connector-curvature="0" /></g><g
           id="g60"
           transform="translate(94.9673,36.2016)"><path
             d="m 0,0 c 0,-0.505 0.078,-0.98 0.234,-1.427 0.154,-0.447 0.378,-0.835 0.669,-1.165 0.291,-0.33 0.651,-0.589 1.078,-0.777 0.427,-0.188 0.912,-0.281 1.456,-0.281 0.504,0 0.971,0.093 1.398,0.281 0.427,0.188 0.796,0.443 1.107,0.767 0.311,0.324 0.553,0.709 0.728,1.155 C 6.845,-1 6.932,-0.518 6.932,0 6.932,0.518 6.845,1 6.67,1.446 6.495,1.893 6.253,2.281 5.942,2.611 5.631,2.941 5.262,3.2 4.835,3.388 4.408,3.575 3.941,3.669 3.437,3.669 2.893,3.669 2.408,3.572 1.981,3.378 1.554,3.184 1.194,2.922 0.903,2.592 0.612,2.262 0.388,1.874 0.234,1.427 0.078,0.98 0,0.505 0,0 M 6.737,-3.01 C 6.349,-3.592 5.844,-4.032 5.224,-4.33 4.602,-4.627 3.961,-4.776 3.301,-4.776 c -0.712,0 -1.356,0.123 -1.932,0.368 -0.576,0.246 -1.068,0.583 -1.476,1.01 -0.407,0.427 -0.725,0.932 -0.951,1.515 -0.227,0.582 -0.34,1.21 -0.34,1.883 0,0.673 0.113,1.301 0.34,1.883 0.226,0.583 0.544,1.088 0.951,1.514 0.408,0.428 0.9,0.764 1.476,1.01 0.576,0.246 1.22,0.369 1.932,0.369 0.66,0 1.301,-0.152 1.923,-0.456 0.62,-0.304 1.125,-0.754 1.513,-1.349 l 0.039,0 0,7.164 1.321,0 0,-14.678 -1.321,0 0,1.533 -0.039,0 z"
             style="fill:#737373;fill-opacity:1;fill-rule:nonzero;stroke:none"
             id="path62"
             inkscape:connector-curvature="0" /></g><g
           id="g64"
           transform="translate(113.3167,36.2016)"><path
             d="m 0,0 c -0.543,0 -1.091,-0.023 -1.641,-0.068 -0.55,-0.046 -1.048,-0.136 -1.495,-0.272 -0.447,-0.136 -0.812,-0.333 -1.097,-0.592 -0.285,-0.259 -0.427,-0.602 -0.427,-1.029 0,-0.324 0.061,-0.596 0.184,-0.816 0.123,-0.22 0.288,-0.398 0.496,-0.534 0.207,-0.135 0.436,-0.232 0.689,-0.291 0.253,-0.058 0.508,-0.087 0.767,-0.087 0.466,0 0.88,0.081 1.243,0.243 0.361,0.161 0.666,0.381 0.912,0.66 0.246,0.278 0.433,0.598 0.563,0.961 0.129,0.362 0.194,0.744 0.194,1.145 L 0.388,0 0,0 Z m 0.388,1.337 c 0,0.784 -0.207,1.369 -0.622,1.754 -0.414,0.386 -1.016,0.578 -1.805,0.578 -0.544,0 -1.048,-0.097 -1.514,-0.291 C -4.02,3.184 -4.414,2.925 -4.738,2.602 l -0.738,0.873 c 0.376,0.376 0.871,0.686 1.486,0.932 0.614,0.246 1.31,0.369 2.087,0.369 0.492,0 0.951,-0.068 1.378,-0.204 C -0.097,4.437 0.279,4.232 0.602,3.96 0.925,3.689 1.178,3.346 1.359,2.932 1.54,2.517 1.631,2.032 1.631,1.476 l 0,-3.981 c 0,-0.349 0.013,-0.712 0.039,-1.087 0.026,-0.376 0.065,-0.693 0.116,-0.951 l -1.184,0 c -0.039,0.219 -0.071,0.459 -0.098,0.718 -0.025,0.259 -0.038,0.511 -0.038,0.757 l -0.039,0 c -0.414,-0.608 -0.883,-1.045 -1.407,-1.31 -0.525,-0.266 -1.156,-0.398 -1.894,-0.398 -0.349,0 -0.709,0.048 -1.077,0.146 -0.37,0.097 -0.706,0.256 -1.01,0.477 -0.305,0.22 -0.557,0.507 -0.757,0.857 -0.201,0.351 -0.301,0.779 -0.301,1.286 0,0.701 0.178,1.256 0.534,1.665 0.355,0.409 0.831,0.714 1.426,0.916 0.597,0.201 1.279,0.331 2.05,0.389 0.769,0.059 1.568,0.088 2.397,0.088 l 0,0.289 z"
             style="fill:#737373;fill-opacity:1;fill-rule:nonzero;stroke:none"
             id="path66"
             inkscape:connector-curvature="0" /></g><g
           id="g68"
           transform="translate(123.626,39.6381)"><path
             d="m 0,0 -2.562,0 0,-5.301 c 0,-0.336 0.032,-0.615 0.096,-0.834 0.065,-0.221 0.159,-0.392 0.282,-0.515 0.123,-0.123 0.269,-0.207 0.437,-0.252 0.168,-0.046 0.349,-0.068 0.543,-0.068 0.182,0 0.372,0.026 0.574,0.077 0.2,0.052 0.391,0.123 0.572,0.214 L 0,-7.825 c -0.233,-0.091 -0.475,-0.158 -0.728,-0.203 -0.252,-0.046 -0.528,-0.069 -0.825,-0.069 -0.246,0 -0.505,0.033 -0.777,0.097 -0.272,0.065 -0.524,0.188 -0.757,0.37 -0.233,0.181 -0.424,0.427 -0.573,0.737 -0.148,0.311 -0.223,0.719 -0.223,1.224 l 0,5.669 -1.884,0 0,1.106 1.884,0 0,2.563 1.321,0 0,-2.563 L 0,1.106 0,0 Z"
             style="fill:#737373;fill-opacity:1;fill-rule:nonzero;stroke:none"
             id="path70"
             inkscape:connector-curvature="0" /></g><g
           id="g72"
           transform="translate(132.4029,36.2016)"><path
             d="m 0,0 c -0.543,0 -1.091,-0.023 -1.641,-0.068 -0.55,-0.046 -1.048,-0.136 -1.495,-0.272 -0.447,-0.136 -0.812,-0.333 -1.097,-0.592 -0.285,-0.259 -0.427,-0.602 -0.427,-1.029 0,-0.324 0.061,-0.596 0.184,-0.816 0.123,-0.22 0.288,-0.398 0.496,-0.534 0.207,-0.135 0.436,-0.232 0.689,-0.291 0.253,-0.058 0.508,-0.087 0.767,-0.087 0.466,0 0.88,0.081 1.243,0.243 0.361,0.161 0.666,0.381 0.912,0.66 0.246,0.278 0.433,0.598 0.563,0.961 0.129,0.362 0.194,0.744 0.194,1.145 L 0.388,0 0,0 Z m 0.388,1.337 c 0,0.784 -0.207,1.369 -0.622,1.754 -0.414,0.386 -1.016,0.578 -1.805,0.578 -0.544,0 -1.048,-0.097 -1.514,-0.291 C -4.02,3.184 -4.414,2.925 -4.738,2.602 l -0.738,0.873 c 0.376,0.376 0.871,0.686 1.486,0.932 0.614,0.246 1.31,0.369 2.087,0.369 0.492,0 0.951,-0.068 1.378,-0.204 C -0.097,4.437 0.279,4.232 0.602,3.96 0.925,3.689 1.178,3.346 1.359,2.932 1.54,2.517 1.631,2.032 1.631,1.476 l 0,-3.981 c 0,-0.349 0.013,-0.712 0.039,-1.087 0.026,-0.376 0.065,-0.693 0.116,-0.951 l -1.184,0 c -0.039,0.219 -0.071,0.459 -0.098,0.718 -0.025,0.259 -0.038,0.511 -0.038,0.757 l -0.039,0 c -0.414,-0.608 -0.883,-1.045 -1.407,-1.31 -0.525,-0.266 -1.156,-0.398 -1.894,-0.398 -0.349,0 -0.709,0.048 -1.077,0.146 -0.37,0.097 -0.706,0.256 -1.01,0.477 -0.305,0.22 -0.557,0.507 -0.757,0.857 -0.201,0.351 -0.301,0.779 -0.301,1.286 0,0.701 0.178,1.256 0.534,1.665 0.355,0.409 0.831,0.714 1.426,0.916 0.596,0.201 1.279,0.331 2.05,0.389 0.769,0.059 1.568,0.088 2.397,0.088 l 0,0.289 z"
             style="fill:#737373;fill-opacity:1;fill-rule:nonzero;stroke:none"
             id="path74"
             inkscape:connector-curvature="0" /></g><g
           id="g76"
           transform="translate(149.1403,39.6381)"><path
             d="m 0,0 -2.562,0 0,-5.301 c 0,-0.336 0.032,-0.615 0.096,-0.834 0.065,-0.221 0.159,-0.392 0.282,-0.515 0.123,-0.123 0.269,-0.207 0.437,-0.252 0.168,-0.046 0.349,-0.068 0.543,-0.068 0.182,0 0.372,0.026 0.574,0.077 0.2,0.052 0.391,0.123 0.572,0.214 L 0,-7.825 c -0.233,-0.091 -0.475,-0.158 -0.728,-0.203 -0.252,-0.046 -0.528,-0.069 -0.825,-0.069 -0.246,0 -0.505,0.033 -0.777,0.097 -0.272,0.065 -0.524,0.188 -0.757,0.37 -0.233,0.181 -0.424,0.427 -0.573,0.737 -0.148,0.311 -0.223,0.719 -0.223,1.224 l 0,5.669 -1.884,0 0,1.106 1.884,0 0,2.563 1.321,0 0,-2.563 L 0,1.106 0,0 Z"
             style="fill:#737373;fill-opacity:1;fill-rule:nonzero;stroke:none"
             id="path78"
             inkscape:connector-curvature="0" /></g><g
           id="g80"
           transform="translate(160.207,36.2016)"><path
             d="m 0,0 c 0,0.505 -0.081,0.98 -0.242,1.427 -0.163,0.447 -0.392,0.835 -0.689,1.165 -0.298,0.33 -0.661,0.592 -1.088,0.786 -0.427,0.194 -0.906,0.291 -1.437,0.291 -0.53,0 -1.006,-0.097 -1.427,-0.291 C -5.304,3.184 -5.663,2.922 -5.96,2.592 -6.258,2.262 -6.488,1.874 -6.65,1.427 -6.812,0.98 -6.893,0.505 -6.893,0 c 0,-0.505 0.081,-0.98 0.243,-1.427 0.162,-0.447 0.392,-0.835 0.69,-1.165 0.297,-0.33 0.656,-0.589 1.077,-0.777 0.421,-0.188 0.897,-0.281 1.427,-0.281 0.531,0 1.01,0.093 1.437,0.281 0.427,0.188 0.79,0.447 1.088,0.777 0.297,0.33 0.526,0.718 0.689,1.165 C -0.081,-0.98 0,-0.505 0,0 m 1.398,0 c 0,-0.687 -0.12,-1.32 -0.359,-1.903 -0.24,-0.582 -0.573,-1.087 -1,-1.514 -0.427,-0.428 -0.938,-0.761 -1.534,-1 -0.595,-0.24 -1.249,-0.359 -1.961,-0.359 -0.698,0 -1.346,0.119 -1.942,0.359 -0.595,0.239 -1.107,0.572 -1.534,1 -0.427,0.427 -0.76,0.932 -1,1.514 C -8.171,-1.32 -8.29,-0.687 -8.29,0 c 0,0.686 0.119,1.32 0.358,1.903 0.24,0.582 0.573,1.087 1,1.514 0.427,0.427 0.939,0.76 1.534,1 0.596,0.239 1.244,0.359 1.942,0.359 0.712,0 1.366,-0.12 1.961,-0.359 0.596,-0.24 1.107,-0.573 1.534,-1 0.427,-0.427 0.76,-0.932 1,-1.514 C 1.278,1.32 1.398,0.686 1.398,0"
             style="fill:#737373;fill-opacity:1;fill-rule:nonzero;stroke:none"
             id="path82"
             inkscape:connector-curvature="0" /></g><g
           id="g84"
           transform="translate(176.8862,38.5898)"><path
             d="m 0,0 c -0.194,0.375 -0.489,0.683 -0.883,0.922 -0.395,0.24 -0.845,0.359 -1.35,0.359 -0.233,0 -0.465,-0.026 -0.699,-0.077 C -3.164,1.152 -3.372,1.068 -3.553,0.951 -3.734,0.834 -3.88,0.686 -3.99,0.504 -4.1,0.323 -4.154,0.11 -4.154,-0.136 c 0,-0.427 0.174,-0.754 0.523,-0.981 0.35,-0.226 0.899,-0.417 1.651,-0.572 1.074,-0.221 1.867,-0.541 2.379,-0.961 0.511,-0.421 0.766,-0.988 0.766,-1.699 0,-0.518 -0.1,-0.955 -0.301,-1.311 -0.2,-0.356 -0.462,-0.647 -0.786,-0.874 -0.323,-0.226 -0.69,-0.388 -1.097,-0.485 -0.408,-0.097 -0.819,-0.146 -1.233,-0.146 -0.687,0 -1.353,0.143 -2,0.428 -0.647,0.284 -1.178,0.731 -1.592,1.339 l 1.048,0.777 c 0.233,-0.401 0.576,-0.738 1.03,-1.01 0.452,-0.272 0.95,-0.408 1.495,-0.408 0.284,0 0.556,0.026 0.815,0.078 0.259,0.052 0.486,0.143 0.68,0.272 0.194,0.129 0.349,0.294 0.465,0.495 0.117,0.201 0.175,0.45 0.175,0.748 0,0.478 -0.23,0.838 -0.689,1.077 -0.459,0.24 -1.123,0.463 -1.991,0.67 -0.271,0.065 -0.56,0.146 -0.863,0.243 -0.304,0.097 -0.586,0.239 -0.845,0.427 -0.259,0.187 -0.473,0.424 -0.641,0.709 -0.168,0.284 -0.252,0.64 -0.252,1.068 0,0.465 0.091,0.863 0.272,1.193 0.181,0.33 0.424,0.602 0.728,0.816 0.304,0.214 0.651,0.372 1.039,0.475 0.388,0.104 0.789,0.156 1.204,0.156 0.634,0 1.249,-0.142 1.845,-0.427 C 0.266,1.676 0.712,1.274 1.01,0.757 L 0,0 Z"
             style="fill:#737373;fill-opacity:1;fill-rule:nonzero;stroke:none"
             id="path86"
             inkscape:connector-curvature="0" /></g><g
           id="g88"
           transform="translate(188.594,38.6674)"><path
             d="m 0,0 c -0.221,0.349 -0.541,0.637 -0.962,0.864 -0.42,0.226 -0.876,0.34 -1.368,0.34 -0.531,0 -1.01,-0.095 -1.437,-0.282 -0.427,-0.188 -0.793,-0.446 -1.097,-0.776 -0.305,-0.331 -0.537,-0.719 -0.7,-1.166 -0.161,-0.446 -0.242,-0.928 -0.242,-1.446 0,-0.518 0.081,-0.997 0.242,-1.437 0.163,-0.44 0.392,-0.825 0.69,-1.155 0.297,-0.33 0.66,-0.589 1.087,-0.776 0.427,-0.188 0.906,-0.282 1.438,-0.282 0.582,0 1.074,0.11 1.475,0.33 0.401,0.22 0.731,0.505 0.99,0.854 l 0.99,-0.737 C 0.718,-6.148 0.242,-6.531 -0.321,-6.815 -0.883,-7.1 -1.561,-7.242 -2.349,-7.242 c -0.738,0 -1.406,0.119 -2.001,0.359 -0.595,0.239 -1.103,0.572 -1.523,1 -0.422,0.427 -0.748,0.932 -0.982,1.514 -0.232,0.583 -0.349,1.217 -0.349,1.903 0,0.686 0.117,1.32 0.349,1.903 0.234,0.582 0.56,1.087 0.982,1.514 0.42,0.427 0.928,0.76 1.523,1 0.595,0.239 1.263,0.36 2.001,0.36 0.607,0 1.225,-0.134 1.854,-0.399 C 0.132,1.647 0.64,1.255 1.029,0.738 L 0,0 Z"
             style="fill:#737373;fill-opacity:1;fill-rule:nonzero;stroke:none"
             id="path90"
             inkscape:connector-curvature="0" /></g><path
           d="m 194.477,31.658 -1.32,0 0,9.086 1.32,0 0,-9.086 z m 0.272,12.582 c 0,-0.272 -0.097,-0.495 -0.291,-0.67 -0.195,-0.175 -0.408,-0.262 -0.64,-0.262 -0.234,0 -0.447,0.087 -0.642,0.262 -0.194,0.175 -0.291,0.398 -0.291,0.67 0,0.272 0.097,0.495 0.291,0.67 0.195,0.174 0.408,0.262 0.642,0.262 0.232,0 0.445,-0.088 0.64,-0.262 0.194,-0.175 0.291,-0.398 0.291,-0.67"
           style="fill:#737373;fill-opacity:1;fill-rule:nonzero;stroke:none"
           id="path92"
           inkscape:connector-curvature="0" /><g
           id="g94"
           transform="translate(206.3023,36.9003)"><path
             d="M 0,0 C -0.039,0.854 -0.314,1.563 -0.825,2.126 -1.337,2.689 -2.065,2.971 -3.01,2.971 -3.45,2.971 -3.857,2.89 -4.233,2.728 -4.609,2.566 -4.938,2.346 -5.223,2.068 -5.508,1.79 -5.735,1.472 -5.903,1.117 -6.071,0.76 -6.168,0.388 -6.194,0 L 0,0 Z m 1.34,-0.427 0,-0.291 c 0,-0.104 -0.007,-0.214 -0.02,-0.33 l -7.534,0 c 0.013,-0.453 0.104,-0.881 0.272,-1.282 0.168,-0.401 0.402,-0.751 0.7,-1.048 0.297,-0.298 0.647,-0.534 1.048,-0.709 0.401,-0.175 0.835,-0.262 1.301,-0.262 0.686,0 1.279,0.158 1.777,0.475 0.497,0.318 0.877,0.683 1.136,1.098 l 0.99,-0.777 c -0.544,-0.686 -1.143,-1.178 -1.797,-1.476 -0.654,-0.297 -1.355,-0.446 -2.106,-0.446 -0.673,0 -1.298,0.12 -1.874,0.359 -0.576,0.24 -1.071,0.573 -1.485,1 -0.415,0.427 -0.741,0.932 -0.981,1.514 -0.239,0.583 -0.359,1.217 -0.359,1.903 0,0.686 0.117,1.321 0.349,1.903 0.234,0.582 0.557,1.087 0.972,1.514 0.413,0.428 0.899,0.761 1.456,1 0.556,0.24 1.158,0.36 1.805,0.36 0.712,0 1.34,-0.12 1.884,-0.36 C -0.582,3.479 -0.13,3.155 0.233,2.748 0.595,2.34 0.871,1.864 1.058,1.32 1.246,0.777 1.34,0.194 1.34,-0.427"
             style="fill:#737373;fill-opacity:1;fill-rule:nonzero;stroke:none"
             id="path96"
             inkscape:connector-curvature="0" /></g><g
           id="g98"
           transform="translate(213.0397,40.7446)"><path
             d="m 0,0 c 0.025,-0.246 0.045,-0.518 0.059,-0.815 0.012,-0.298 0.019,-0.544 0.019,-0.738 l 0.038,0 c 0.259,0.531 0.68,0.961 1.263,1.291 0.582,0.33 1.197,0.495 1.844,0.495 1.152,0 2.016,-0.343 2.593,-1.029 0.575,-0.686 0.864,-1.592 0.864,-2.718 l 0,-5.572 -1.321,0 0,5.028 c 0,0.479 -0.039,0.913 -0.117,1.301 -0.077,0.388 -0.21,0.721 -0.398,1 -0.187,0.278 -0.439,0.495 -0.757,0.651 -0.317,0.155 -0.715,0.232 -1.194,0.232 -0.349,0 -0.689,-0.071 -1.02,-0.213 C 1.544,-1.229 1.249,-1.446 0.99,-1.737 0.731,-2.029 0.525,-2.397 0.369,-2.844 0.214,-3.291 0.136,-3.818 0.136,-4.427 l 0,-4.659 -1.32,0 0,7.086 c 0,0.246 -0.007,0.563 -0.02,0.952 C -1.217,-0.66 -1.236,-0.311 -1.262,0 L 0,0 Z"
             style="fill:#737373;fill-opacity:1;fill-rule:nonzero;stroke:none"
             id="path100"
             inkscape:connector-curvature="0" /></g><g
           id="g102"
           transform="translate(231.0587,38.6674)"><path
             d="m 0,0 c -0.221,0.349 -0.541,0.637 -0.962,0.864 -0.42,0.226 -0.876,0.34 -1.368,0.34 -0.531,0 -1.01,-0.095 -1.437,-0.282 -0.427,-0.188 -0.793,-0.446 -1.097,-0.776 -0.305,-0.331 -0.537,-0.719 -0.7,-1.166 -0.161,-0.446 -0.242,-0.928 -0.242,-1.446 0,-0.518 0.081,-0.997 0.242,-1.437 0.163,-0.44 0.392,-0.825 0.69,-1.155 0.297,-0.33 0.66,-0.589 1.087,-0.776 0.427,-0.188 0.906,-0.282 1.438,-0.282 0.582,0 1.074,0.11 1.475,0.33 0.401,0.22 0.731,0.505 0.99,0.854 l 0.99,-0.737 C 0.718,-6.148 0.242,-6.531 -0.321,-6.815 -0.883,-7.1 -1.561,-7.242 -2.349,-7.242 c -0.738,0 -1.406,0.119 -2.001,0.359 -0.595,0.239 -1.103,0.572 -1.523,1 -0.422,0.427 -0.748,0.932 -0.982,1.514 -0.232,0.583 -0.349,1.217 -0.349,1.903 0,0.686 0.117,1.32 0.349,1.903 0.234,0.582 0.56,1.087 0.982,1.514 0.42,0.427 0.928,0.76 1.523,1 0.595,0.239 1.263,0.36 2.001,0.36 0.607,0 1.225,-0.134 1.854,-0.399 C 0.132,1.647 0.64,1.255 1.029,0.738 L 0,0 Z"
             style="fill:#737373;fill-opacity:1;fill-rule:nonzero;stroke:none"
             id="path104"
             inkscape:connector-curvature="0" /></g><g
           id="g106"
           transform="translate(242.533,36.9003)"><path
             d="M 0,0 C -0.039,0.854 -0.314,1.563 -0.825,2.126 -1.337,2.689 -2.065,2.971 -3.01,2.971 -3.45,2.971 -3.857,2.89 -4.233,2.728 -4.609,2.566 -4.938,2.346 -5.223,2.068 -5.508,1.79 -5.735,1.472 -5.903,1.117 -6.071,0.76 -6.168,0.388 -6.194,0 L 0,0 Z m 1.34,-0.427 0,-0.291 c 0,-0.104 -0.007,-0.214 -0.02,-0.33 l -7.534,0 c 0.013,-0.453 0.104,-0.881 0.272,-1.282 0.168,-0.401 0.402,-0.751 0.7,-1.048 0.297,-0.298 0.647,-0.534 1.049,-0.709 0.4,-0.175 0.834,-0.262 1.3,-0.262 0.686,0 1.279,0.158 1.777,0.475 0.497,0.318 0.877,0.683 1.136,1.098 l 0.99,-0.777 c -0.544,-0.686 -1.143,-1.178 -1.797,-1.476 -0.654,-0.297 -1.355,-0.446 -2.106,-0.446 -0.673,0 -1.298,0.12 -1.874,0.359 -0.576,0.24 -1.071,0.573 -1.485,1 -0.415,0.427 -0.741,0.932 -0.981,1.514 -0.239,0.583 -0.359,1.217 -0.359,1.903 0,0.686 0.117,1.321 0.349,1.903 0.234,0.582 0.557,1.087 0.972,1.514 0.413,0.428 0.899,0.761 1.456,1 0.556,0.24 1.158,0.36 1.805,0.36 0.712,0 1.34,-0.12 1.884,-0.36 C -0.582,3.479 -0.13,3.155 0.233,2.748 0.595,2.34 0.871,1.864 1.058,1.32 1.246,0.777 1.34,0.194 1.34,-0.427"
             style="fill:#737373;fill-opacity:1;fill-rule:nonzero;stroke:none"
             id="path108"
             inkscape:connector-curvature="0" /></g><g
           id="g110"
           transform="translate(170.3672,173.8092)"><path
             d="m 0,0 10.979,-1.976 -10e-4,-55.109 -22.175,0 L 0,0 Z"
             style="fill:#df933a;fill-opacity:1;fill-rule:nonzero;stroke:none"
             id="path112"
             inkscape:connector-curvature="0" /></g><g
           id="g114"
           transform="translate(124.2049,184.3685)"><path
             d="m 0,0 2.305,10.978 54.829,0 0,-22.176 L 0,0 Z"
             style="fill:#c86826;fill-opacity:1;fill-rule:nonzero;stroke:none"
             id="path116"
             inkscape:connector-curvature="0" /></g><g
           id="g118"
           transform="translate(126.4761,144.2168)"><path
             d="M 0,0 -38.139,-1.888"
             style="fill:none;stroke:#737373;stroke-width:1.36800003;stroke-linecap:butt;stroke-linejoin:miter;stroke-miterlimit:10;stroke-dasharray:none;stroke-opacity:1"
             id="path120"
             inkscape:connector-curvature="0" /></g><g
           id="g122"
           transform="translate(124.6936,143.2254)"><path
             d="M 0,0 11.917,19.697"
             style="fill:none;stroke:#737373;stroke-width:1.36800003;stroke-linecap:butt;stroke-linejoin:miter;stroke-miterlimit:10;stroke-dasharray:none;stroke-opacity:1"
             id="path124"
             inkscape:connector-curvature="0" /></g><g
           id="g126"
           transform="translate(130.6684,144.401)"><path
             d="m 0,0 c 0.102,-2.315 -1.693,-4.275 -4.008,-4.377 -2.316,-0.101 -4.275,1.693 -4.377,4.009 -0.101,2.315 1.693,4.274 4.008,4.376 C -2.061,4.11 -0.102,2.315 0,0"
             style="fill:#737373;fill-opacity:1;fill-rule:nonzero;stroke:none"
             id="path128"
             inkscape:connector-curvature="0" /></g><g
           id="g130"
           transform="translate(92.4557,142.2852)"><path
             d="m 0,0 c 0.102,-2.315 -1.693,-4.275 -4.008,-4.377 -2.316,-0.101 -4.275,1.693 -4.377,4.009 -0.101,2.315 1.693,4.274 4.009,4.376 C -2.061,4.11 -0.102,2.315 0,0"
             style="fill:#737373;fill-opacity:1;fill-rule:nonzero;stroke:none"
             id="path132"
             inkscape:connector-curvature="0" /></g><g
           id="g134"
           transform="translate(142.8991,163.1985)"><path
             d="m 0,0 c 0.153,-3.473 -2.539,-6.412 -6.012,-6.565 -3.473,-0.152 -6.413,2.539 -6.565,6.012 -0.153,3.474 2.539,6.413 6.012,6.565 C -3.092,6.165 -0.153,3.473 0,0"
             style="fill:#737373;fill-opacity:1;fill-rule:nonzero;stroke:none"
             id="path136"
             inkscape:connector-curvature="0" /></g><g
           id="g138"
           transform="translate(159.1938,160.2622)"><path
             d="m 0,0 c 0.124,-2.822 -2.063,-5.21 -4.885,-5.334 -2.822,-0.124 -5.21,2.063 -5.334,4.885 -0.124,2.822 2.063,5.21 4.885,5.334 C -2.512,5.009 -0.124,2.822 0,0"
             style="fill:#737373;fill-opacity:1;fill-rule:nonzero;stroke:none"
             id="path140"
             inkscape:connector-curvature="0" /></g><g
           id="g142"
           transform="translate(198.958,188.544)"><path
             d="m 0,0 c 0.102,-2.315 -1.693,-4.275 -4.008,-4.377 -2.316,-0.101 -4.275,1.693 -4.377,4.009 -0.101,2.315 1.693,4.274 4.008,4.376 C -2.061,4.11 -0.102,2.315 0,0"
             style="fill:#737373;fill-opacity:1;fill-rule:nonzero;stroke:none"
             id="path144"
             inkscape:connector-curvature="0" /></g><g
           id="g146"
           transform="translate(136.6105,162.9223)"><path
             d="M 0,0 17.474,-2.885 58.419,25.453"
             style="fill:none;stroke:#737373;stroke-width:1.36800003;stroke-linecap:butt;stroke-linejoin:miter;stroke-miterlimit:10;stroke-dasharray:none;stroke-opacity:1"
             id="path148"
             inkscape:connector-curvature="0" /></g><g
           id="g150"
           transform="translate(159.7184,127.7362)"><path
             d="m 0,0 -1.975,-10.978 -55.006,0 0,22.175 L 0,0 Z"
             style="fill:#d44f28;fill-opacity:1;fill-rule:nonzero;stroke:none"
             id="path152"
             inkscape:connector-curvature="0" /></g><g
           id="g154"
           transform="translate(113.7215,138.3511)"><path
             d="m 0,0 -10.977,1.921 0,55.054 22.175,0 L 0,0 Z"
             style="fill:#ab4424;fill-opacity:1;fill-rule:nonzero;stroke:none"
             id="path156"
             inkscape:connector-curvature="0" /></g></g></g></g></svg>